<svg width="527" height="527" viewBox="0 0 527 527" fill="none" xmlns="http://www.w3.org/2000/svg">
<rect width="526.886" height="526.909" fill="white"/>
<path d="M263.444 516.909C403.417 516.909 516.886 403.434 516.886 263.455C516.886 123.475 403.417 10 263.444 10C123.47 10 10 123.475 10 263.455C10 403.434 123.47 516.909 263.444 516.909Z" fill="#3758F9"/>
<path fill-rule="evenodd" clip-rule="evenodd" d="M263.504 102.572C218.702 75.6903 178.373 80.1724 142.532 116.013C88.7645 169.775 122.369 216.819 102.207 250.422C88.7645 272.825 66.365 281.786 35 277.303C79.8019 304.185 120.129 299.704 155.972 263.863C209.738 210.098 176.135 163.056 196.296 129.454C209.738 107.05 232.139 98.0906 263.504 102.572Z" fill="white"/>
<path fill-rule="evenodd" clip-rule="evenodd" d="M375.504 166.572C330.702 139.69 290.373 144.172 254.532 180.013C200.764 233.775 234.369 280.819 214.207 314.422C200.764 336.825 178.365 345.786 147 341.303C191.802 368.185 232.129 363.704 267.972 327.863C321.738 274.098 288.135 227.056 308.296 193.454C321.738 171.05 344.139 162.091 375.504 166.572Z" fill="white"/>
<path fill-rule="evenodd" clip-rule="evenodd" d="M481.504 254.572C436.702 227.69 396.373 232.172 360.532 268.013C306.764 321.775 340.369 368.819 320.207 402.422C306.764 424.825 284.365 433.786 253 429.303C297.802 456.185 338.129 451.704 373.972 415.863C427.738 362.098 394.135 315.056 414.296 281.454C427.738 259.05 450.139 250.091 481.504 254.572Z" fill="white"/>
</svg>
