<?xml version="1.0" encoding="utf-8"?>
<!-- Generator: Adobe Illustrator 16.0.0, SVG Export Plug-In . SVG Version: 6.00 Build 0)  -->
<!DOCTYPE svg PUBLIC "-//W3C//DTD SVG 1.1//EN" "http://www.w3.org/Graphics/SVG/1.1/DTD/svg11.dtd">
<svg version="1.1" id="Layer_1" xmlns="http://www.w3.org/2000/svg" xmlns:xlink="http://www.w3.org/1999/xlink" x="0px" y="0px"
	 width="256.667px" height="241.754px" viewBox="135.833 110.746 256.667 241.754"
	 enable-background="new 135.833 110.746 256.667 241.754" xml:space="preserve">
<g>
	<g>
		<g transform="translate(103.879107, 223.299485)">
			<g>
				<path d="M184.068,56.964L126.495-91.133c-0.567-1.511-3.219-1.511-3.786,0L65.323,56.964c-0.567,1.136,0.193,2.271,1.896,2.271
					h25.942c0.761,0,1.708-0.38,1.896-1.135l29.542-84.463L154.521,58.1c0.192,0.755,1.141,1.135,1.708,1.135h26.131
					C183.688,59.235,184.637,58.1,184.068,56.964z"/>
			</g>
		</g>
	</g>
	<path d="M376.823,245.299l-106.361-64.481c-1.34-0.538-2.949,1.072-2.544,2.545L326.24,331.14c0.404,1.207,1.745,1.473,2.816,0.402
		l18.212-18.213c0.67-0.67,0.936-1.473,0.534-2.141l-14.043-29.689l-8.008-16.936l-0.646-1.364l-14.799-31.289l29.919,19.686
		l-14.475,12.968l8.008,16.936L376.823,245.299z"/>
	<g>
		<g transform="translate(90.797385, 245.386448)">
			<g>
				<path d="M64.4,66.597h-3.688l5.25-14.208h3.646l5.125,14.208h-3.667l-0.75-2.375H65.15L64.4,66.597z M67.712,55.868
					c-0.125,0.432-0.26,0.885-0.396,1.354c-0.141,0.475-0.375,1.25-0.708,2.334l-0.604,1.875h3.438l-0.604-1.875
					c-0.197-0.584-0.391-1.193-0.583-1.834C68.056,57.087,67.879,56.467,67.712,55.868z"/>
			</g>
		</g>
	</g>
	<g>
		<g transform="translate(110.512529, 245.386448)">
			<g>
				<path d="M72.222,66.597l-4.916-14.208h3.916l2.104,7.021c0.136,0.475,0.302,1.1,0.5,1.875c0.192,0.781,0.38,1.553,0.563,2.313
					c0.333-1.375,0.567-2.338,0.708-2.896c0.151-0.552,0.261-0.979,0.334-1.271l2.104-7.042h3.792l-4.896,14.208H72.222z"/>
			</g>
		</g>
	</g>
	<g>
		<g transform="translate(130.227673, 245.386448)">
			<g>
				<path d="M78.523,52.389v14.208h-3.521V52.389H78.523z"/>
			</g>
		</g>
	</g>
	<g>
		<g transform="translate(143.757675, 245.386448)">
			<g>
				<path d="M83.033,62.618v3.979h-3.521V52.389h5.188c2.193,0,3.75,0.386,4.667,1.146c0.927,0.766,1.396,2.042,1.396,3.834
					c0,1.791-0.489,3.119-1.458,3.979c-0.974,0.85-2.479,1.271-4.521,1.271H83.033z M87.199,57.368c0-0.667-0.182-1.131-0.541-1.396
					c-0.365-0.275-1.016-0.416-1.959-0.416h-1.666v3.979h1.666c0.959,0,1.609-0.156,1.959-0.479
					C87.018,58.738,87.199,58.175,87.199,57.368z"/>
			</g>
		</g>
	</g>
	<g>
		<g transform="translate(162.555241, 245.386448)">
			<g>
				<path d="M98.674,59.472c0,2.584-0.531,4.459-1.584,5.625c-1.041,1.156-2.744,1.729-5.104,1.729
					c-2.459,0-4.188-0.542-5.188-1.625c-1-1.094-1.5-3.005-1.5-5.729c0-2.583,0.525-4.442,1.583-5.583
					c1.052-1.151,2.755-1.729,5.104-1.729c2.469,0,4.197,0.553,5.188,1.646C98.174,54.889,98.674,56.78,98.674,59.472z
					 M89.299,62.514c0.192,0.375,0.479,0.641,0.854,0.792c0.386,0.156,1,0.229,1.834,0.229c0.833,0,1.442-0.072,1.833-0.229
					c0.386-0.151,0.677-0.417,0.875-0.792c0.151-0.302,0.255-0.692,0.313-1.167c0.067-0.484,0.104-1.109,0.104-1.875
					c0-0.76-0.037-1.385-0.104-1.875c-0.058-0.5-0.161-0.9-0.313-1.208c-0.183-0.386-0.469-0.656-0.854-0.813
					c-0.391-0.167-1.01-0.25-1.854-0.25c-0.85,0-1.469,0.083-1.854,0.25c-0.375,0.156-0.656,0.427-0.833,0.813
					c-0.156,0.308-0.266,0.708-0.334,1.208c-0.072,0.49-0.104,1.115-0.104,1.875c0,0.766,0.031,1.391,0.104,1.875
					C89.034,61.822,89.143,62.212,89.299,62.514z"/>
			</g>
		</g>
	</g>
	<g>
		<g transform="translate(182.763155, 245.386448)">
			<g>
				<path d="M97.91,61.284l-2.875-0.666c-1.156-0.276-1.938-0.693-2.354-1.25c-0.416-0.553-0.625-1.354-0.625-2.396
					c0-1.65,0.438-2.864,1.313-3.646c0.875-0.776,2.219-1.167,4.042-1.167c0.761,0,1.438,0.037,2.021,0.104
					c0.584,0.058,1.125,0.161,1.625,0.313v3.146c-1.141-0.192-1.926-0.302-2.354-0.333c-0.432-0.042-0.886-0.063-1.354-0.063
					c-0.641,0-1.104,0.114-1.396,0.333c-0.281,0.209-0.417,0.563-0.417,1.063c0,0.24,0.042,0.428,0.125,0.563
					c0.094,0.125,0.271,0.219,0.521,0.271l2.73,0.625c0.791,0.182,1.359,0.364,1.707,0.541c0.344,0.167,0.625,0.391,0.834,0.667
					c0.234,0.292,0.406,0.667,0.521,1.125c0.125,0.448,0.188,0.995,0.188,1.646c0,1.641-0.449,2.828-1.334,3.563
					c-0.875,0.74-2.229,1.104-4.063,1.104c-0.948,0-1.844-0.058-2.688-0.167c-0.85-0.109-1.5-0.25-1.959-0.416v-3.334
					c0.594,0.198,1.313,0.35,2.146,0.459c0.833,0.114,1.666,0.166,2.5,0.166c0.666,0,1.125-0.083,1.375-0.25
					c0.26-0.166,0.396-0.5,0.396-1c0-0.317-0.043-0.547-0.125-0.688C98.327,61.462,98.16,61.358,97.91,61.284z"/>
			</g>
		</g>
	</g>
	<path fill="none" d="M367.52,280.341"/>
	<path fill="none" d="M348.341,295.581"/>
</g>
</svg>
