<svg xmlns="http://www.w3.org/2000/svg" viewBox="0 0 1254 1254">
<rect width="100%" height="100%" fill="black"/>
<path d="M 526 570 L 525 571 L 524 571 L 520 575 L 520 576 L 519 577 L 519 580 L 518 581 L 519 582 L 519 585 L 520 586 L 520 587 L 521 588 L 521 589 L 522 589 L 523 590 L 524 590 L 525 591 L 526 591 L 527 592 L 534 592 L 535 591 L 536 591 L 541 586 L 541 577 L 540 576 L 540 575 L 536 571 L 535 571 L 534 570 Z" fill="#10eec0" fill-rule="evenodd"/>
<path d="M 491 570 L 490 571 L 489 571 L 485 575 L 485 576 L 484 577 L 484 585 L 485 586 L 485 587 L 486 588 L 486 589 L 487 589 L 488 590 L 489 590 L 491 592 L 498 592 L 499 591 L 500 591 L 501 590 L 502 590 L 504 588 L 504 587 L 505 586 L 505 585 L 506 584 L 506 578 L 505 577 L 505 575 L 501 571 L 500 571 L 499 570 Z" fill="#10eec0" fill-rule="evenodd"/>
<path d="M 455 570 L 450 575 L 450 576 L 449 577 L 449 585 L 450 586 L 450 587 L 451 588 L 451 589 L 452 590 L 453 590 L 454 591 L 455 591 L 456 592 L 463 592 L 464 591 L 465 591 L 466 590 L 467 590 L 470 587 L 470 585 L 471 584 L 471 579 L 470 578 L 470 575 L 466 571 L 465 571 L 464 570 Z" fill="#10eec0" fill-rule="evenodd"/>
<path d="M 425 535 L 424 536 L 423 536 L 423 537 L 422 538 L 421 538 L 418 541 L 418 542 L 417 543 L 416 543 L 414 545 L 414 546 L 413 547 L 412 547 L 380 579 L 380 582 L 424 626 L 428 626 L 430 624 L 430 623 L 432 621 L 433 621 L 434 620 L 434 619 L 436 617 L 436 615 L 433 612 L 433 611 L 432 610 L 431 610 L 430 609 L 430 608 L 403 581 L 404 580 L 404 579 L 406 577 L 407 577 L 421 563 L 421 562 L 422 561 L 423 561 L 435 549 L 435 548 L 436 547 L 436 545 L 435 544 L 435 543 L 427 535 Z" fill="#10eec0" fill-rule="evenodd"/>
<path d="M 565 534 L 564 535 L 563 535 L 557 541 L 557 542 L 556 543 L 555 543 L 555 544 L 554 545 L 554 547 L 557 550 L 558 550 L 559 551 L 559 552 L 587 580 L 587 582 L 586 583 L 585 583 L 583 585 L 583 586 L 582 587 L 581 587 L 579 589 L 579 590 L 577 592 L 576 592 L 574 594 L 574 595 L 572 597 L 571 597 L 570 598 L 570 599 L 568 601 L 567 601 L 566 602 L 566 603 L 554 615 L 554 617 L 563 626 L 566 626 L 567 625 L 568 625 L 568 624 L 571 621 L 572 621 L 572 620 L 575 617 L 576 617 L 577 616 L 577 615 L 580 612 L 581 612 L 581 611 L 584 608 L 585 608 L 586 607 L 586 606 L 588 604 L 589 604 L 590 603 L 590 602 L 593 599 L 594 599 L 599 594 L 599 593 L 602 590 L 603 590 L 603 589 L 606 586 L 607 586 L 610 583 L 610 582 L 611 581 L 611 580 L 567 536 L 567 535 L 566 535 Z" fill="#10eec0" fill-rule="evenodd"/>
<path d="M 579 451 L 578 452 L 578 453 L 579 454 L 579 455 L 583 459 L 583 460 L 587 464 L 587 465 L 592 470 L 592 471 L 594 473 L 594 474 L 597 477 L 597 478 L 601 482 L 601 483 L 605 487 L 605 488 L 609 492 L 609 493 L 611 495 L 611 496 L 612 497 L 613 497 L 614 498 L 614 499 L 615 500 L 615 501 L 619 505 L 619 506 L 623 510 L 623 511 L 739 511 L 740 512 L 754 512 L 755 511 L 762 511 L 763 512 L 785 512 L 786 511 L 792 511 L 793 512 L 828 512 L 829 513 L 832 513 L 833 514 L 836 514 L 837 515 L 840 515 L 841 516 L 842 516 L 843 517 L 844 517 L 845 518 L 846 518 L 847 519 L 848 519 L 849 520 L 850 520 L 852 522 L 853 522 L 856 525 L 857 525 L 867 535 L 867 536 L 869 538 L 869 539 L 872 542 L 872 544 L 874 546 L 874 547 L 875 548 L 875 549 L 876 550 L 876 552 L 877 553 L 877 555 L 878 556 L 878 557 L 879 558 L 879 560 L 880 561 L 880 565 L 881 566 L 881 577 L 882 578 L 882 582 L 881 583 L 881 593 L 880 594 L 880 597 L 879 598 L 879 600 L 878 601 L 878 603 L 877 604 L 877 605 L 876 606 L 876 608 L 875 609 L 875 610 L 874 611 L 874 612 L 873 613 L 873 614 L 872 615 L 872 616 L 869 619 L 869 620 L 868 621 L 868 622 L 857 633 L 856 633 L 853 636 L 852 636 L 851 637 L 850 637 L 848 639 L 847 639 L 846 640 L 845 640 L 844 641 L 842 641 L 841 642 L 840 642 L 839 643 L 837 643 L 836 644 L 833 644 L 832 645 L 822 645 L 821 646 L 809 646 L 808 645 L 801 645 L 800 646 L 796 646 L 795 645 L 781 645 L 780 646 L 669 646 L 668 647 L 669 648 L 669 649 L 672 652 L 672 653 L 677 658 L 677 659 L 681 663 L 681 664 L 685 668 L 685 669 L 689 673 L 689 674 L 694 679 L 694 680 L 698 684 L 698 685 L 703 690 L 703 691 L 707 695 L 707 696 L 712 701 L 712 702 L 715 705 L 715 706 L 720 711 L 720 712 L 724 716 L 724 717 L 727 720 L 727 721 L 732 726 L 732 727 L 735 730 L 735 731 L 739 735 L 739 736 L 743 740 L 743 741 L 749 747 L 749 748 L 753 752 L 753 753 L 757 757 L 757 758 L 762 763 L 762 764 L 765 767 L 765 768 L 770 773 L 770 774 L 775 779 L 775 780 L 779 784 L 779 785 L 785 791 L 785 792 L 789 796 L 789 797 L 793 801 L 793 802 L 797 806 L 797 807 L 801 811 L 801 812 L 805 816 L 805 817 L 810 822 L 810 823 L 814 827 L 814 828 L 819 833 L 819 834 L 823 838 L 823 839 L 826 842 L 826 843 L 832 849 L 832 850 L 836 854 L 836 855 L 841 860 L 841 861 L 844 864 L 844 865 L 850 871 L 850 872 L 854 876 L 854 877 L 855 878 L 855 879 L 856 879 L 857 880 L 857 881 L 861 885 L 861 886 L 865 890 L 865 891 L 868 894 L 868 895 L 869 895 L 870 896 L 946 896 L 947 895 L 947 894 L 946 893 L 946 892 L 942 888 L 942 887 L 937 882 L 937 881 L 933 877 L 933 876 L 928 871 L 928 870 L 926 868 L 926 867 L 920 861 L 920 860 L 917 857 L 917 856 L 913 852 L 913 851 L 910 848 L 910 847 L 905 842 L 905 841 L 901 837 L 901 836 L 896 831 L 896 830 L 892 826 L 892 825 L 888 821 L 888 820 L 884 816 L 884 815 L 879 810 L 879 809 L 876 806 L 876 805 L 871 800 L 871 799 L 866 794 L 866 793 L 863 790 L 863 789 L 859 785 L 859 784 L 856 781 L 856 780 L 852 776 L 852 775 L 847 770 L 847 769 L 843 765 L 843 764 L 839 760 L 839 759 L 835 755 L 835 754 L 830 749 L 830 748 L 826 744 L 826 743 L 823 740 L 823 739 L 817 733 L 817 732 L 814 729 L 814 728 L 810 724 L 810 723 L 806 719 L 806 718 L 803 715 L 803 714 L 799 710 L 799 709 L 797 707 L 798 706 L 839 706 L 840 705 L 845 705 L 846 704 L 849 704 L 850 703 L 853 703 L 854 702 L 856 702 L 857 701 L 861 701 L 862 700 L 863 700 L 864 699 L 865 699 L 866 698 L 868 698 L 869 697 L 871 697 L 872 696 L 873 696 L 874 695 L 875 695 L 877 693 L 878 693 L 879 692 L 881 692 L 883 690 L 884 690 L 886 688 L 887 688 L 889 686 L 890 686 L 893 683 L 894 683 L 898 679 L 899 679 L 914 664 L 914 663 L 917 660 L 917 659 L 919 657 L 919 656 L 922 653 L 922 652 L 924 650 L 924 649 L 925 648 L 925 647 L 927 645 L 927 644 L 928 643 L 928 641 L 930 639 L 930 638 L 931 637 L 931 636 L 932 635 L 932 633 L 933 632 L 933 630 L 934 629 L 934 628 L 935 627 L 935 626 L 936 625 L 936 623 L 937 622 L 937 619 L 938 618 L 938 616 L 939 615 L 939 612 L 940 611 L 940 608 L 941 607 L 941 602 L 942 601 L 942 593 L 943 592 L 943 565 L 942 564 L 942 558 L 941 557 L 941 551 L 940 550 L 940 547 L 939 546 L 939 544 L 938 543 L 938 540 L 937 539 L 937 536 L 936 535 L 936 534 L 935 533 L 935 531 L 934 530 L 934 529 L 933 528 L 933 526 L 932 525 L 932 524 L 931 523 L 931 522 L 930 521 L 930 520 L 929 519 L 929 518 L 928 517 L 928 516 L 927 515 L 927 514 L 925 512 L 925 511 L 924 510 L 924 509 L 923 508 L 923 507 L 921 505 L 921 504 L 919 502 L 919 501 L 915 497 L 915 496 L 906 487 L 906 486 L 905 485 L 904 485 L 899 480 L 898 480 L 897 479 L 897 478 L 896 477 L 895 477 L 894 476 L 893 476 L 889 472 L 888 472 L 886 470 L 885 470 L 883 468 L 882 468 L 881 467 L 880 467 L 879 466 L 878 466 L 877 465 L 876 465 L 874 463 L 872 463 L 871 462 L 870 462 L 869 461 L 868 461 L 867 460 L 866 460 L 865 459 L 863 459 L 862 458 L 860 458 L 859 457 L 857 457 L 856 456 L 854 456 L 853 455 L 851 455 L 850 454 L 845 454 L 844 453 L 839 453 L 838 452 L 830 452 L 829 451 Z" fill="#10eec0" fill-rule="evenodd"/>
<path d="M 858 298 L 857 299 L 853 299 L 852 300 L 850 300 L 849 301 L 848 301 L 847 302 L 846 302 L 845 303 L 843 303 L 841 305 L 840 305 L 838 307 L 837 307 L 835 309 L 834 309 L 828 315 L 828 316 L 825 319 L 825 320 L 823 322 L 477 322 L 476 323 L 468 323 L 467 324 L 462 324 L 461 325 L 455 325 L 454 326 L 451 326 L 450 327 L 448 327 L 447 328 L 445 328 L 444 329 L 442 329 L 441 330 L 438 330 L 437 331 L 436 331 L 435 332 L 434 332 L 433 333 L 432 333 L 431 334 L 428 334 L 427 335 L 426 335 L 424 337 L 423 337 L 422 338 L 420 338 L 419 339 L 418 339 L 416 341 L 415 341 L 413 343 L 412 343 L 411 344 L 410 344 L 408 346 L 407 346 L 405 348 L 404 348 L 400 352 L 399 352 L 395 356 L 394 356 L 379 371 L 379 372 L 375 376 L 375 377 L 374 378 L 374 379 L 371 382 L 371 383 L 369 385 L 369 386 L 368 387 L 368 388 L 366 390 L 366 391 L 365 392 L 365 393 L 364 394 L 364 395 L 362 397 L 362 398 L 361 399 L 361 400 L 360 401 L 360 402 L 358 404 L 358 405 L 357 406 L 357 407 L 356 408 L 356 409 L 354 411 L 354 412 L 353 413 L 353 414 L 352 415 L 352 416 L 351 417 L 351 418 L 349 420 L 349 421 L 347 423 L 347 425 L 345 427 L 345 428 L 344 429 L 344 430 L 343 431 L 343 432 L 341 434 L 341 435 L 339 437 L 339 438 L 338 439 L 338 440 L 337 441 L 337 442 L 336 443 L 336 444 L 334 446 L 334 448 L 332 450 L 332 451 L 330 453 L 330 454 L 329 455 L 329 456 L 328 457 L 328 458 L 326 460 L 326 461 L 325 462 L 325 463 L 324 464 L 324 465 L 322 467 L 322 468 L 321 469 L 321 470 L 320 471 L 320 472 L 319 473 L 319 474 L 317 476 L 317 477 L 316 478 L 316 479 L 314 481 L 314 482 L 313 483 L 313 484 L 312 485 L 312 486 L 311 487 L 311 488 L 309 490 L 309 491 L 308 492 L 308 493 L 307 494 L 307 495 L 306 496 L 306 497 L 304 499 L 304 500 L 303 501 L 303 502 L 301 504 L 301 505 L 300 506 L 300 507 L 298 509 L 298 511 L 296 513 L 296 514 L 294 516 L 294 518 L 292 520 L 292 521 L 290 523 L 290 524 L 289 525 L 289 526 L 288 527 L 288 528 L 287 529 L 287 530 L 285 532 L 285 534 L 283 536 L 283 537 L 281 539 L 281 540 L 280 541 L 280 542 L 279 543 L 279 544 L 277 546 L 277 547 L 276 548 L 276 549 L 275 550 L 275 551 L 273 553 L 273 554 L 272 555 L 272 556 L 271 557 L 271 558 L 270 559 L 270 560 L 268 562 L 268 563 L 267 564 L 267 565 L 266 566 L 266 567 L 265 568 L 265 569 L 263 571 L 263 573 L 261 575 L 261 576 L 260 577 L 260 578 L 259 579 L 259 581 L 261 583 L 261 584 L 263 586 L 263 588 L 265 590 L 265 591 L 267 593 L 267 594 L 268 595 L 268 596 L 270 598 L 270 599 L 271 600 L 271 601 L 272 602 L 272 603 L 274 605 L 274 606 L 276 608 L 276 609 L 277 610 L 277 611 L 279 613 L 279 614 L 280 615 L 280 616 L 281 617 L 281 618 L 282 619 L 282 620 L 285 623 L 285 625 L 287 627 L 287 628 L 289 630 L 289 631 L 290 632 L 290 633 L 291 634 L 291 635 L 293 637 L 293 638 L 294 639 L 294 640 L 295 641 L 295 642 L 298 645 L 298 647 L 300 649 L 300 650 L 302 652 L 302 653 L 303 654 L 303 655 L 304 656 L 304 657 L 306 659 L 306 660 L 308 662 L 308 663 L 309 664 L 309 665 L 311 667 L 311 668 L 312 669 L 312 670 L 313 671 L 313 672 L 316 675 L 316 677 L 318 679 L 318 680 L 320 682 L 320 683 L 321 684 L 321 685 L 322 686 L 322 687 L 325 690 L 325 692 L 327 694 L 327 695 L 329 697 L 329 698 L 330 699 L 330 700 L 332 702 L 332 703 L 333 704 L 333 705 L 334 706 L 334 707 L 336 709 L 336 710 L 338 712 L 338 713 L 339 714 L 339 715 L 341 717 L 341 718 L 343 720 L 343 722 L 346 725 L 346 726 L 347 727 L 347 728 L 348 729 L 348 730 L 350 732 L 350 733 L 351 734 L 351 735 L 352 736 L 352 737 L 354 739 L 354 740 L 356 742 L 356 743 L 357 744 L 357 745 L 359 747 L 359 748 L 360 749 L 360 750 L 361 751 L 361 752 L 363 754 L 363 755 L 365 757 L 365 758 L 367 760 L 367 761 L 369 763 L 369 764 L 372 767 L 372 768 L 373 768 L 374 769 L 374 770 L 378 774 L 378 775 L 389 786 L 390 786 L 394 790 L 395 790 L 398 793 L 399 793 L 401 795 L 402 795 L 404 797 L 405 797 L 407 799 L 408 799 L 409 800 L 410 800 L 412 802 L 413 802 L 414 803 L 415 803 L 416 804 L 418 804 L 420 806 L 422 806 L 423 807 L 424 807 L 425 808 L 427 808 L 428 809 L 429 809 L 430 810 L 432 810 L 433 811 L 434 811 L 435 812 L 438 812 L 439 813 L 442 813 L 443 814 L 446 814 L 447 815 L 449 815 L 450 816 L 454 816 L 455 817 L 464 817 L 465 818 L 477 818 L 478 819 L 585 819 L 588 822 L 588 823 L 596 831 L 597 831 L 600 834 L 601 834 L 602 835 L 603 835 L 604 836 L 605 836 L 606 837 L 607 837 L 608 838 L 609 838 L 610 839 L 614 839 L 615 840 L 618 840 L 619 841 L 636 841 L 637 840 L 640 840 L 641 839 L 645 839 L 646 838 L 647 838 L 648 837 L 649 837 L 650 836 L 651 836 L 652 835 L 653 835 L 654 834 L 655 834 L 658 831 L 659 831 L 664 826 L 665 826 L 665 825 L 669 821 L 669 820 L 670 819 L 670 818 L 672 816 L 672 815 L 674 813 L 674 811 L 675 810 L 675 808 L 676 807 L 676 805 L 677 804 L 677 802 L 678 801 L 678 796 L 679 795 L 679 787 L 678 786 L 678 780 L 677 779 L 677 777 L 676 776 L 676 774 L 675 773 L 675 771 L 674 770 L 674 769 L 673 768 L 673 767 L 672 766 L 672 765 L 670 763 L 670 762 L 668 760 L 668 759 L 658 749 L 657 749 L 655 747 L 654 747 L 653 746 L 652 746 L 651 745 L 650 745 L 649 744 L 648 744 L 647 743 L 645 743 L 644 742 L 642 742 L 641 741 L 639 741 L 638 740 L 632 740 L 631 739 L 624 739 L 623 740 L 617 740 L 616 741 L 614 741 L 613 742 L 611 742 L 610 743 L 608 743 L 607 744 L 606 744 L 605 745 L 604 745 L 603 746 L 602 746 L 601 747 L 600 747 L 598 749 L 597 749 L 588 758 L 588 759 L 586 761 L 586 762 L 583 765 L 569 765 L 568 764 L 564 764 L 563 765 L 522 765 L 521 764 L 474 764 L 473 763 L 469 763 L 468 762 L 464 762 L 463 761 L 459 761 L 458 760 L 456 760 L 455 759 L 453 759 L 452 758 L 451 758 L 450 757 L 448 757 L 447 756 L 445 756 L 444 755 L 443 755 L 442 754 L 441 754 L 439 752 L 438 752 L 437 751 L 436 751 L 434 749 L 433 749 L 431 747 L 430 747 L 426 743 L 425 743 L 415 733 L 415 732 L 412 729 L 412 728 L 411 727 L 411 726 L 408 723 L 408 722 L 407 721 L 407 720 L 406 719 L 406 718 L 404 716 L 404 715 L 403 714 L 403 713 L 401 711 L 401 710 L 399 708 L 399 707 L 398 706 L 398 705 L 396 703 L 396 702 L 395 701 L 395 700 L 394 699 L 394 698 L 392 696 L 392 695 L 390 693 L 390 691 L 388 689 L 388 688 L 386 686 L 386 685 L 385 684 L 385 683 L 383 681 L 383 680 L 381 678 L 381 676 L 379 674 L 379 673 L 377 671 L 377 670 L 376 669 L 376 668 L 375 667 L 375 666 L 373 664 L 373 663 L 372 662 L 372 661 L 370 659 L 370 658 L 368 656 L 368 655 L 367 654 L 367 653 L 366 652 L 366 651 L 364 649 L 364 648 L 363 647 L 363 646 L 361 644 L 361 643 L 359 641 L 359 639 L 357 637 L 357 636 L 355 634 L 355 633 L 354 632 L 354 631 L 353 630 L 353 629 L 350 626 L 350 624 L 348 622 L 348 621 L 346 619 L 346 618 L 345 617 L 345 616 L 344 615 L 344 614 L 342 612 L 342 611 L 341 610 L 341 609 L 340 608 L 340 607 L 337 604 L 337 603 L 336 602 L 336 601 L 335 600 L 335 599 L 333 597 L 333 596 L 332 595 L 332 594 L 330 592 L 330 591 L 328 589 L 328 588 L 327 587 L 327 586 L 326 585 L 326 584 L 324 582 L 324 581 L 323 580 L 323 578 L 324 577 L 324 576 L 326 574 L 326 573 L 328 571 L 328 569 L 330 567 L 330 566 L 331 565 L 331 564 L 332 563 L 332 562 L 333 561 L 333 560 L 335 558 L 335 557 L 336 556 L 336 555 L 337 554 L 337 553 L 339 551 L 339 550 L 341 548 L 341 546 L 343 544 L 343 543 L 345 541 L 345 540 L 346 539 L 346 538 L 347 537 L 347 536 L 348 535 L 348 534 L 350 532 L 350 530 L 352 528 L 352 527 L 353 526 L 353 525 L 355 523 L 355 522 L 356 521 L 356 520 L 358 518 L 358 517 L 359 516 L 359 515 L 360 514 L 360 513 L 361 512 L 361 511 L 363 509 L 363 507 L 365 505 L 365 504 L 366 503 L 366 502 L 368 500 L 368 498 L 370 496 L 370 495 L 372 493 L 372 492 L 373 491 L 373 490 L 374 489 L 374 488 L 376 486 L 376 485 L 377 484 L 377 483 L 378 482 L 378 481 L 379 480 L 379 479 L 381 477 L 381 475 L 383 473 L 383 472 L 385 470 L 385 469 L 386 468 L 386 467 L 387 466 L 387 465 L 388 464 L 388 463 L 390 461 L 390 459 L 392 457 L 392 456 L 394 454 L 394 453 L 395 452 L 395 451 L 396 450 L 396 449 L 398 447 L 398 446 L 399 445 L 399 443 L 401 441 L 401 440 L 403 438 L 403 436 L 405 434 L 405 433 L 406 432 L 406 431 L 407 430 L 407 429 L 408 428 L 408 427 L 410 425 L 410 424 L 411 423 L 411 422 L 412 421 L 412 420 L 414 418 L 414 417 L 416 415 L 416 414 L 418 412 L 418 411 L 422 407 L 422 406 L 429 399 L 430 399 L 435 394 L 436 394 L 438 392 L 439 392 L 441 390 L 442 390 L 443 389 L 444 389 L 446 387 L 447 387 L 448 386 L 450 386 L 451 385 L 452 385 L 453 384 L 454 384 L 455 383 L 456 383 L 457 382 L 458 382 L 459 381 L 463 381 L 464 380 L 466 380 L 467 379 L 469 379 L 470 378 L 475 378 L 476 377 L 823 377 L 825 379 L 825 380 L 835 390 L 836 390 L 838 392 L 839 392 L 841 394 L 843 394 L 844 395 L 845 395 L 846 396 L 847 396 L 848 397 L 849 397 L 850 398 L 852 398 L 853 399 L 858 399 L 859 400 L 875 400 L 876 399 L 881 399 L 882 398 L 884 398 L 885 397 L 886 397 L 887 396 L 888 396 L 889 395 L 891 395 L 892 394 L 893 394 L 895 392 L 896 392 L 898 390 L 899 390 L 906 383 L 906 382 L 910 378 L 910 377 L 911 376 L 911 375 L 913 373 L 913 372 L 914 371 L 914 370 L 915 369 L 915 366 L 916 365 L 916 364 L 917 363 L 917 359 L 918 358 L 918 341 L 917 340 L 917 337 L 916 336 L 916 334 L 915 333 L 915 330 L 914 329 L 914 328 L 913 327 L 913 326 L 912 325 L 912 324 L 910 322 L 910 321 L 909 320 L 909 319 L 905 315 L 905 314 L 900 309 L 899 309 L 897 307 L 896 307 L 894 305 L 893 305 L 891 303 L 889 303 L 888 302 L 887 302 L 886 301 L 885 301 L 884 300 L 882 300 L 881 299 L 878 299 L 877 298 Z" fill="#10eec0" fill-rule="evenodd"/>
</svg>